<?xml version="1.0" encoding="UTF-8"?>
<svg width="20px" height="20px" viewBox="0 0 20 20" version="1.1" xmlns="http://www.w3.org/2000/svg" xmlns:xlink="http://www.w3.org/1999/xlink">
    <!-- Generator: Sketch 58 (84663) - https://sketch.com -->
    <title>icon/服务器联通</title>
    <desc>Created with Sketch.</desc>
    <g id="icon/服务器联通" stroke="none" stroke-width="1" fill="none" fill-rule="evenodd">
        <g id="icon/服务器" fill-rule="nonzero">
            <path d="M10,17.0968064 C11.5732,17.0968064 13.0272,16.5848 14.204,15.7184 C15.20765,14.9796013 15.999893,13.990401 16.5016,12.8496 C16.8954576,11.9512843 17.0981507,10.9808635 17.0968067,10 C17.0968067,8.9332 16.8612,7.9212 16.4396,7.0132 C15.8362683,5.71706641 14.8570567,4.63235189 13.6292,3.9 C12.5318683,3.2456527 11.2776162,2.90115847 10,2.90319098 C8.8648,2.90319098 7.792,3.1696 6.8408,3.6432 C5.95090402,4.08697118 5.16375715,4.7121105 4.53,5.4784 C3.9126338,6.22339597 3.4545383,7.08703872 3.184,8.016 C2.99708016,8.66073361 2.90253887,9.32871764 2.90319656,10 C2.90319656,11.572 3.4144,13.024 4.2792,14.2004 C4.9672,15.1364 5.8792,15.8964 6.9368,16.403191 C7.89293548,16.8611803 8.93984014,17.0982308 10,17.0968064 Z" id="路径" fill="#4B7BFF"></path>
            <path d="M10,18.7096 C5.1896,18.7096 1.2904,14.8104 1.2904,10 C1.2904,5.1896 5.1896,1.2904 10,1.2904 C14.8104,1.2904 18.7096,5.1896 18.7096,10 C18.7096,14.8104 14.8104,18.7096 10,18.7096 Z M10,18.0644 C14.454,18.0644 18.0644,14.454 18.0644,10 C18.0644,5.546 14.454,1.9356 10,1.9356 C5.546,1.9356 1.9356,5.546 1.9356,10 C1.9356,14.454 5.546,18.0644 10,18.0644 Z" id="形状" fill-opacity="0.56840035" fill="#2862FF"></path>
            <path d="M10,20 C4.4772,20 0,15.5228 0,10 C0,4.4772 4.4772,0 10,0 C15.5228,0 20,4.4772 20,10 C20,15.5228 15.5228,20 10,20 Z M10,19.3548 C15.1664,19.3548 19.3548,15.1668 19.3548,10 C19.3548,4.8336 15.1668,0.6452 10,0.6452 C4.8336,0.6452 0.6452,4.8332 0.6452,10 C0.6452,15.1664 4.8332,19.3548 10,19.3548 Z" id="形状" fill-opacity="0.344924607" fill="#2862FF"></path>
            <path d="M6.4,6.4 L13.6,6.4 C13.8209139,6.4 14,6.5790861 14,6.8 L14,8 C14,8.2209139 13.8209139,8.4 13.6,8.4 L6.4,8.4 C6.1790861,8.4 6,8.2209139 6,8 L6,6.8 C6,6.5790861 6.1790861,6.4 6.4,6.4 Z M10.5716,6.9716 L10.5716,7.8284 L11.1428,7.8284 L11.1428,6.972 L10.572,6.972 L10.5716,6.9716 Z M6.5716,6.9716 L6.5716,7.5428 L7.1428,7.5428 L7.1428,6.972 L6.572,6.972 L6.5716,6.9716 Z M11.7144,6.9716 L11.7144,7.8284 L12.2856,7.8284 L12.2856,6.972 L11.7144,6.972 L11.7144,6.9716 Z M12.8572,6.9716 L12.8572,7.8284 L13.4284,7.8284 L13.4284,6.972 L12.8572,6.972 L12.8572,6.9716 Z M6.4,8.9716 L13.6,8.9716 C13.8209139,8.9716 14,9.1506861 14,9.3716 L14,10.5716 C14,10.7925139 13.8209139,10.9716 13.6,10.9716 L6.4,10.9716 C6.1790861,10.9716 6,10.7925139 6,10.5716 L6,9.3716 C6,9.1506861 6.1790861,8.9716 6.4,8.9716 L6.4,8.9716 Z M10.5716,9.5428 L10.5716,10.4 L11.1428,10.4 L11.1428,9.5428 L10.572,9.5428 L10.5716,9.5428 Z M6.5716,9.5428 L6.5716,10.1144 L7.1428,10.1144 L7.1428,9.5428 L6.572,9.5428 L6.5716,9.5428 Z M11.7144,9.5428 L11.7144,10.4 L12.2856,10.4 L12.2856,9.5428 L11.7144,9.5428 L11.7144,9.5428 Z M12.8572,9.5428 L12.8572,10.4 L13.4284,10.4 L13.4284,9.5428 L12.8572,9.5428 L12.8572,9.5428 Z M6.4,11.5428 L13.6,11.5428 C13.8209139,11.5428 14,11.7218861 14,11.9428 L14,13.1428 C14,13.3637139 13.8209139,13.5428 13.6,13.5428 L6.4,13.5428 C6.1790861,13.5428 6,13.3637139 6,13.1428 L6,11.9428 C6,11.7218861 6.1790861,11.5428 6.4,11.5428 Z M10.5716,12.1144 L10.5716,12.9716 L11.1428,12.9716 L11.1428,12.1144 L10.572,12.1144 L10.5716,12.1144 Z M6.5716,12.1144 L6.5716,12.6856 L7.1428,12.6856 L7.1428,12.1144 L6.572,12.1144 L6.5716,12.1144 Z M11.7144,12.1144 L11.7144,12.9716 L12.2856,12.9716 L12.2856,12.1144 L11.7144,12.1144 Z M12.8572,12.1144 L12.8572,12.9716 L13.4284,12.9716 L13.4284,12.1144 L12.8572,12.1144 Z" id="形状" fill="#FFFFFF"></path>
        </g>
    </g>
</svg>